<svg width="300" height="60" viewBox="0 0 300 60" fill="none" xmlns="http://www.w3.org/2000/svg">
<path d="M13.6094 30L6.83738 36.7375L0 30L6.83486 23.2025L13.6094 30ZM30.1649 13.535L41.8287 25.135L48.666 18.34L30.1649 0L11.6638 18.4L18.5011 25.195L30.1649 13.535ZM53.4949 23.2025L46.7204 30L53.5553 36.7975L60.3876 30L53.4949 23.2025ZM30.1649 46.465L18.5011 34.805L11.6638 41.6025L30.1649 60L48.666 41.6L41.8287 34.805L30.1649 46.465ZM30.1649 36.74L36.9998 29.94L30.1649 23.205L23.33 30L30.1649 36.7375V36.74ZM102.043 37.44V37.325C102.043 32.93 99.685 30.7025 95.8565 29.2375C98.2119 27.95 100.215 25.8375 100.215 22.1475V22.0325C100.215 16.875 96.0325 13.535 89.3158 13.535H73.9392V46.4075H89.6702C97.1511 46.465 102.043 43.4175 102.043 37.4425V37.44ZM92.9682 23.38C92.9682 25.84 90.9648 26.835 87.7246 26.835H81.0104V19.8625H88.1971C91.2614 19.8625 92.9682 21.0925 92.9682 23.2625V23.38ZM94.7957 36.505C94.7957 38.965 92.8526 40.08 89.6677 40.08H81.0104V32.87H89.4339C93.1467 32.87 94.7957 34.22 94.7957 36.445V36.505ZM117.301 46.465V13.535H109.996V46.4075H117.301V46.465ZM156.423 46.465V13.535H149.233V33.81L133.739 13.535H127.022V46.4075H134.211V25.5475L150.236 46.465H156.42H156.423ZM196.718 46.465L182.523 13.36H175.809L161.608 46.465H169.092L172.096 39.0825H186.06L189.064 46.465H196.723H196.718ZM183.463 32.695H174.685L179.104 22.0325L183.463 32.695ZM231.423 46.465V13.535H224.233V33.81L208.739 13.535H202.022V46.4075H209.211V25.5475L225.236 46.465H231.42H231.423ZM268.95 41.1325L264.297 36.505C261.703 38.8475 259.406 40.37 255.577 40.37C249.921 40.37 245.975 35.6825 245.975 30.0575V29.8825C245.975 24.2575 249.979 19.63 255.577 19.63C258.875 19.63 261.469 21.035 264.061 23.32L268.714 17.9875C265.652 15 261.939 12.89 255.695 12.89C245.562 12.89 238.433 20.565 238.433 29.8825V30C238.433 39.4325 245.678 46.9325 255.401 46.9325C261.763 46.9925 265.534 44.765 268.95 41.1325ZM300 46.465V40.02H282.029V33.105H297.642V26.66H282.029V19.98H299.764V13.535H274.842V46.4075H300V46.465Z" fill="#F0B90B"/>
</svg>
