<svg width="259" height="41" viewBox="0 0 259 41" fill="none" xmlns="http://www.w3.org/2000/svg">
<path d="M248.425 12.8557C250.288 12.8557 251.973 13.2821 253.481 14.1349C254.989 14.9549 256.172 16.2342 257.029 17.9726C257.916 19.711 258.36 21.9578 258.36 24.713V39.9652H249.933V26.2383C249.933 24.3358 249.578 22.9582 248.869 22.1054C248.188 21.2198 247.227 20.777 245.986 20.777C245.099 20.777 244.285 21.0066 243.546 21.4658C242.807 21.8922 242.23 22.5646 241.816 23.483C241.403 24.4014 241.196 25.5987 241.196 27.0747V39.9652H232.769V13.2985H240.796V20.8754L239.244 18.6614C240.161 16.7262 241.417 15.283 243.014 14.3317C244.611 13.3477 246.414 12.8557 248.425 12.8557Z" fill="#D62323"/>
<path d="M218.865 39.9652V13.2985H227.292V39.9652H218.865ZM223.079 10.3465C221.541 10.3465 220.299 9.8709 219.353 8.91969C218.407 7.96848 217.934 6.78767 217.934 5.37726C217.934 3.96684 218.407 2.78603 219.353 1.83482C220.299 0.883609 221.541 0.408005 223.079 0.408005C224.616 0.408005 225.858 0.867209 226.804 1.78562C227.751 2.67123 228.224 3.81924 228.224 5.22965C228.224 6.70567 227.751 7.93568 226.804 8.91969C225.888 9.8709 224.646 10.3465 223.079 10.3465Z" fill="#D62323"/>
<path d="M205.696 39.9652V34.996L205.119 33.7659V24.6146C205.119 23.1386 204.705 22.007 203.877 21.2198C203.079 20.3998 201.792 19.9898 200.018 19.9898C198.865 19.9898 197.697 20.203 196.515 20.6294C195.332 21.023 194.326 21.5806 193.499 22.3022L190.66 15.9554C192.02 14.9713 193.646 14.2169 195.539 13.6921C197.461 13.1345 199.368 12.8557 201.26 12.8557C205.163 12.8557 208.179 13.8561 210.308 15.857C212.467 17.825 213.546 20.9246 213.546 25.1559V39.9652H205.696ZM198.599 40.408C196.677 40.408 195.051 40.0472 193.72 39.3256C192.39 38.604 191.37 37.62 190.66 36.3736C189.98 35.1272 189.64 33.7331 189.64 32.1915C189.64 30.5515 190.009 29.1411 190.749 27.9603C191.517 26.7467 192.685 25.8283 194.253 25.2051C195.82 24.549 197.845 24.221 200.329 24.221H206.006V29.0919H201.482C200.122 29.0919 199.161 29.3379 198.599 29.8299C198.067 30.3219 197.801 30.9779 197.801 31.7979C197.801 32.6179 198.082 33.2739 198.643 33.7659C199.205 34.2579 199.974 34.5039 200.95 34.5039C201.866 34.5039 202.694 34.2579 203.434 33.7659C204.202 33.2411 204.764 32.4539 205.119 31.4043L206.272 34.8483C205.829 36.6852 204.956 38.0792 203.655 39.0304C202.384 39.9488 200.698 40.408 198.599 40.408Z" fill="#D62323"/>
<path d="M175.789 12.8557C177.652 12.8557 179.337 13.2821 180.845 14.1349C182.353 14.955 183.536 16.2342 184.394 17.9726C185.281 19.711 185.724 21.9578 185.724 24.713V39.9652H177.297V26.2383C177.297 24.3358 176.942 22.9582 176.233 22.1054C175.553 21.2198 174.592 20.777 173.35 20.777C172.463 20.777 171.65 21.0066 170.91 21.4658C170.171 21.8922 169.595 22.5646 169.181 23.483C168.767 24.4014 168.56 25.5987 168.56 27.0747V39.9652H160.133V3.45844H168.56V20.8754L166.608 18.6614C167.525 16.7262 168.782 15.283 170.378 14.3317C171.975 13.3477 173.779 12.8557 175.789 12.8557Z" fill="#D62323"/>
<path d="M145.781 40.408C143.12 40.408 140.739 39.8176 138.64 38.6368C136.57 37.456 134.944 35.8324 133.761 33.7659C132.578 31.6667 131.987 29.2723 131.987 26.5827C131.987 23.893 132.578 21.515 133.761 19.4486C134.944 17.3822 136.57 15.775 138.64 14.6269C140.739 13.4461 143.12 12.8557 145.781 12.8557C148.501 12.8557 150.852 13.4953 152.833 14.7745C154.814 16.0538 156.218 17.8578 157.046 20.1866L150.526 23.8766C149.965 22.6302 149.27 21.7282 148.442 21.1706C147.614 20.5802 146.712 20.285 145.736 20.285C144.761 20.285 143.874 20.531 143.075 21.023C142.277 21.515 141.641 22.2366 141.168 23.1878C140.725 24.1062 140.503 25.2379 140.503 26.5827C140.503 27.9603 140.725 29.1247 141.168 30.0759C141.641 31.0271 142.277 31.7487 143.075 32.2407C143.874 32.7327 144.761 32.9787 145.736 32.9787C146.712 32.9787 147.614 32.6999 148.442 32.1423C149.27 31.5519 149.965 30.6335 150.526 29.3871L157.046 33.0771C156.218 35.406 154.814 37.21 152.833 38.4892C150.852 39.7684 148.501 40.408 145.781 40.408Z" fill="#D62323"/>
<path d="M111.137 35.0452L111.358 23.8766L121.16 13.2985H131.14L120.273 25.7463L115.971 29.5839L111.137 35.0452ZM104.129 39.9652V3.45844H112.556V39.9652H104.129ZM121.781 39.9652L114.419 29.7315L119.652 22.5482L131.982 39.9652H121.781Z" fill="#D62323"/>
<path d="M89.7768 40.408C87.1156 40.408 84.7354 39.8176 82.636 38.6368C80.5663 37.456 78.94 35.8324 77.7573 33.7659C76.5745 31.6667 75.9832 29.2723 75.9832 26.5827C75.9832 23.893 76.5745 21.515 77.7573 19.4486C78.94 17.3822 80.5663 15.775 82.636 14.6269C84.7354 13.4461 87.1156 12.8557 89.7768 12.8557C92.4971 12.8557 94.8478 13.4953 96.8289 14.7745C98.8099 16.0538 100.214 17.8578 101.042 20.1866L94.5225 23.8766C93.9607 22.6302 93.2659 21.7282 92.438 21.1706C91.61 20.5802 90.7082 20.285 89.7325 20.285C88.7567 20.285 87.8696 20.531 87.0713 21.023C86.2729 21.515 85.6372 22.2366 85.1641 23.1878C84.7206 24.1062 84.4988 25.2379 84.4988 26.5827C84.4988 27.9603 84.7206 29.1247 85.1641 30.0759C85.6372 31.0271 86.2729 31.7487 87.0713 32.2407C87.8696 32.7327 88.7567 32.9787 89.7325 32.9787C90.7082 32.9787 91.61 32.6999 92.438 32.1423C93.2659 31.5519 93.9607 30.6335 94.5225 29.3871L101.042 33.0771C100.214 35.406 98.8099 37.21 96.8289 38.4892C94.8478 39.7684 92.4971 40.408 89.7768 40.408Z" fill="#D62323"/>
<path d="M60.0157 40.408C57.3841 40.408 55.0482 39.8176 53.008 38.6368C50.9678 37.456 49.3563 35.8324 48.1736 33.7659C47.0204 31.6667 46.4438 29.2723 46.4438 26.5827C46.4438 23.893 47.0204 21.515 48.1736 19.4486C49.3563 17.3822 50.9678 15.775 53.008 14.6269C55.0482 13.4461 57.3841 12.8557 60.0157 12.8557C62.6473 12.8557 64.9832 13.4461 67.0234 14.6269C69.0932 15.775 70.7047 17.3822 71.8579 19.4486C73.011 21.515 73.5876 23.893 73.5876 26.5827C73.5876 29.2723 73.011 31.6667 71.8579 33.7659C70.7047 35.8324 69.0932 37.456 67.0234 38.6368C64.9832 39.8176 62.6473 40.408 60.0157 40.408ZM60.0157 32.9787C60.9915 32.9787 61.849 32.7327 62.5882 32.2407C63.357 31.7487 63.9631 31.0271 64.4066 30.0759C64.8502 29.0919 65.0719 27.9275 65.0719 26.5827C65.0719 25.2379 64.8502 24.1062 64.4066 23.1878C63.9631 22.2366 63.357 21.515 62.5882 21.023C61.849 20.531 60.9915 20.285 60.0157 20.285C59.0695 20.285 58.2121 20.531 57.4433 21.023C56.7041 21.515 56.0979 22.2366 55.6248 23.1878C55.1813 24.1062 54.9595 25.2379 54.9595 26.5827C54.9595 27.9275 55.1813 29.0919 55.6248 30.0759C56.0979 31.0271 56.7041 31.7487 57.4433 32.2407C58.2121 32.7327 59.0695 32.9787 60.0157 32.9787Z" fill="#D62323"/>
<path d="M34.0483 39.9652V3.45844H42.4753V39.9652H34.0483Z" fill="#D62323"/>
<path d="M0.360107 39.9652V5.52487H16.2383C20.3188 5.52487 23.3643 6.36128 25.375 8.0341C27.3856 9.67411 28.3909 11.8389 28.3909 14.5286C28.3909 16.2998 27.9622 17.8578 27.1047 19.2026C26.2768 20.5146 25.0941 21.5642 23.5565 22.3514C22.0485 23.1059 20.2448 23.4831 18.1455 23.4831L19.0325 21.1214C21.2206 21.1214 23.1278 21.4986 24.754 22.253C26.3803 22.9746 27.6369 24.0407 28.524 25.4511C29.4406 26.8287 29.8989 28.5179 29.8989 30.5187C29.8989 33.5036 28.8049 35.8324 26.6168 37.5052C24.4583 39.1452 21.2945 39.9652 17.1254 39.9652H0.360107ZM9.05321 32.9296H16.4157C17.9237 32.9296 19.0621 32.6507 19.8309 32.0931C20.6292 31.5027 21.0284 30.6171 21.0284 29.4363C21.0284 28.2555 20.6292 27.3863 19.8309 26.8287C19.0621 26.2383 17.9237 25.9431 16.4157 25.9431H8.43227V19.2026H15.0852C16.5636 19.2026 17.6724 18.9238 18.4116 18.3662C19.1508 17.8086 19.5204 16.9722 19.5204 15.857C19.5204 14.7418 19.1508 13.9218 18.4116 13.397C17.6724 12.8393 16.5636 12.5605 15.0852 12.5605H9.05321V32.9296Z" fill="#D62323"/>
</svg>
