<svg width="192" height="60" viewBox="0 0 192 60" fill="none" xmlns="http://www.w3.org/2000/svg">
<path d="M168.82 40.5682V24.2046H173.036V27.0917H173.223C173.556 26.1329 174.109 25.3765 174.885 24.8225C175.66 24.2685 176.588 23.9915 177.668 23.9915C178.762 23.9915 179.693 24.2721 180.462 24.8331C181.23 25.3871 181.743 26.14 181.999 27.0917H182.165C182.49 26.1542 183.079 25.4049 183.931 24.8438C184.789 24.2756 185.803 23.9915 186.973 23.9915C188.462 23.9915 189.67 24.478 190.598 25.451C191.533 26.4169 192 27.7877 192 29.5632V40.5682H187.586V30.4581C187.586 29.549 187.351 28.8672 186.88 28.4127C186.409 27.9581 185.821 27.7309 185.114 27.7309C184.311 27.7309 183.685 27.9936 183.235 28.5192C182.785 29.0377 182.56 29.723 182.56 30.5753V40.5682H178.271V30.3623C178.271 29.5597 178.045 28.9205 177.595 28.4446C177.152 27.9688 176.567 27.7309 175.84 27.7309C175.349 27.7309 174.906 27.8587 174.511 28.1144C174.123 28.363 173.815 28.7145 173.587 29.1691C173.358 29.6165 173.244 30.1421 173.244 30.7458V40.5682H168.82Z" fill="#2B1EBC"/>
<path d="M160.857 33.6008V24.2045H165.281V40.5681H161.033V37.5958H160.867C160.507 38.5546 159.908 39.3252 159.07 39.9076C158.24 40.49 157.225 40.7812 156.028 40.7812C154.961 40.7812 154.023 40.5326 153.213 40.0354C152.403 39.5383 151.77 38.8316 151.313 37.9154C150.863 36.9992 150.634 35.9019 150.627 34.6235V24.2045H155.051V33.8138C155.058 34.7798 155.311 35.5432 155.809 36.1043C156.308 36.6654 156.976 36.9459 157.814 36.9459C158.347 36.9459 158.845 36.8217 159.309 36.5731C159.773 36.3174 160.147 35.941 160.431 35.4438C160.722 34.9467 160.864 34.3323 160.857 33.6008Z" fill="#2B1EBC"/>
<path d="M140.418 40.8878C138.777 40.8878 137.365 40.5469 136.181 39.8651C135.004 39.1762 134.097 38.2032 133.46 36.9461C132.823 35.6819 132.505 34.1868 132.505 32.461C132.505 30.7777 132.823 29.3005 133.46 28.0292C134.097 26.7579 134.994 25.7671 136.15 25.0569C137.313 24.3466 138.677 23.9915 140.242 23.9915C141.294 23.9915 142.274 24.1655 143.181 24.5135C144.095 24.8544 144.891 25.3694 145.569 26.0583C146.255 26.7472 146.788 27.6137 147.169 28.6577C147.55 29.6946 147.74 30.9091 147.74 32.3012V33.5476H134.27V30.7351H143.575C143.575 30.0817 143.437 29.5029 143.16 28.9986C142.883 28.4944 142.499 28.1002 142.007 27.8161C141.523 27.5249 140.958 27.3793 140.314 27.3793C139.643 27.3793 139.047 27.5391 138.528 27.8587C138.016 28.1712 137.614 28.5938 137.323 29.1265C137.033 29.652 136.884 30.238 136.877 30.8843V33.5583C136.877 34.3679 137.022 35.0675 137.313 35.657C137.611 36.2465 138.03 36.701 138.57 37.0206C139.11 37.3402 139.75 37.5 140.491 37.5C140.983 37.5 141.433 37.429 141.841 37.287C142.25 37.1449 142.599 36.9319 142.89 36.6478C143.181 36.3637 143.402 36.0157 143.555 35.6037L147.647 35.8807C147.439 36.8892 147.013 37.7699 146.369 38.5228C145.732 39.2685 144.908 39.8509 143.897 40.2699C142.894 40.6819 141.734 40.8878 140.418 40.8878Z" fill="#2B1EBC"/>
<path d="M121.925 40.5681V24.2045H126.214V27.0596H126.38C126.671 26.044 127.159 25.2769 127.844 24.7584C128.53 24.2329 129.319 23.9701 130.212 23.9701C130.434 23.9701 130.673 23.9843 130.929 24.0127C131.185 24.0411 131.41 24.0802 131.604 24.1299V28.1569C131.396 28.093 131.109 28.0361 130.742 27.9864C130.375 27.9367 130.039 27.9119 129.734 27.9119C129.084 27.9119 128.502 28.0575 127.99 28.3486C127.484 28.6327 127.083 29.0305 126.785 29.5418C126.494 30.0532 126.349 30.6427 126.349 31.3103V40.5681H121.925Z" fill="#2B1EBC"/>
<path d="M111.716 40.8878C110.075 40.8878 108.662 40.5469 107.478 39.8651C106.301 39.1762 105.394 38.2032 104.757 36.9461C104.121 35.6819 103.802 34.1868 103.802 32.461C103.802 30.7777 104.121 29.3005 104.757 28.0292C105.394 26.7579 106.291 25.7671 107.447 25.0569C108.61 24.3466 109.974 23.9915 111.539 23.9915C112.592 23.9915 113.571 24.1655 114.478 24.5135C115.392 24.8544 116.188 25.3694 116.867 26.0583C117.552 26.7472 118.085 27.6137 118.466 28.6577C118.847 29.6946 119.037 30.9091 119.037 32.3012V33.5476H105.568V30.7351H114.873C114.873 30.0817 114.734 29.5029 114.457 28.9986C114.18 28.4944 113.796 28.1002 113.305 27.8161C112.82 27.5249 112.256 27.3793 111.612 27.3793C110.94 27.3793 110.345 27.5391 109.826 27.8587C109.313 28.1712 108.912 28.5938 108.621 29.1265C108.33 29.652 108.181 30.238 108.174 30.8843V33.5583C108.174 34.3679 108.32 35.0675 108.61 35.657C108.908 36.2465 109.327 36.701 109.867 37.0206C110.407 37.3402 111.048 37.5 111.788 37.5C112.28 37.5 112.73 37.429 113.138 37.287C113.547 37.1449 113.897 36.9319 114.187 36.6478C114.478 36.3637 114.7 36.0157 114.852 35.6037L118.944 35.8807C118.736 36.8892 118.31 37.7699 117.667 38.5228C117.03 39.2685 116.206 39.8509 115.195 40.2699C114.191 40.6819 113.031 40.8878 111.716 40.8878Z" fill="#2B1EBC"/>
<path d="M90.6204 31.108V40.5682H86.1962V18.75H90.4957V27.0916H90.6827C91.0427 26.1257 91.6243 25.3693 92.4274 24.8224C93.2306 24.2685 94.238 23.9915 95.4496 23.9915C96.5574 23.9915 97.5232 24.2401 98.3471 24.7372C99.1779 25.2273 99.8218 25.9339 100.279 26.8572C100.743 27.7734 100.971 28.8707 100.964 30.1491V40.5682H96.54V30.9588C96.547 29.9503 96.2977 29.1655 95.7923 28.6044C95.2938 28.0433 94.5945 27.7628 93.6945 27.7628C93.0921 27.7628 92.559 27.8942 92.0951 28.157C91.6381 28.4197 91.2781 28.8033 91.015 29.3075C90.7588 29.8047 90.6273 30.4048 90.6204 31.108Z" fill="#2B1EBC"/>
<path d="M82.9715 24.2045V27.6136H73.3651V24.2045H82.9715ZM75.546 20.2841H79.9702V35.5397C79.9702 35.9588 80.0325 36.2855 80.1571 36.5199C80.2817 36.7471 80.4548 36.9069 80.6764 36.9993C80.9048 37.0916 81.1679 37.1378 81.4657 37.1378C81.6734 37.1378 81.8811 37.12 82.0888 37.0845C82.2965 37.0419 82.4557 37.0099 82.5665 36.9886L83.2623 40.3657C83.0408 40.4368 82.7292 40.5184 82.3276 40.6108C81.9261 40.7102 81.438 40.7706 80.8633 40.7919C79.7971 40.8345 78.8624 40.6889 78.0592 40.3551C77.263 40.0213 76.6434 39.5028 76.2003 38.7997C75.7572 38.0966 75.5391 37.2088 75.546 36.1363V20.2841Z" fill="#2B1EBC"/>
<path d="M56.6627 40.5682V18.75H70.9945V22.5533H61.1596V27.7521H70.2572V31.5554H61.1596V36.7649H71.0361V40.5682H56.6627Z" fill="#2B1EBC"/>
<path d="M6.3974 33.5633L22.1094 43.0766V56.25L6.3974 33.5633Z" fill="#F7CBBF" stroke="#2B1EBC" stroke-width="0.625" stroke-linejoin="round"/>
<path d="M6.3974 30.4902L22.1094 23.1554V3.75L6.3974 30.4902Z" fill="#F7CBBF" stroke="#2B1EBC" stroke-width="0.625" stroke-linejoin="round"/>
<path d="M6.3974 30.4903L22.1094 23.1555V40.017L6.3974 30.4903Z" fill="#81A9F8" stroke="#2B1EBC" stroke-width="0.625" stroke-linejoin="round"/>
<path d="M37.8214 33.5633L22.1094 43.0766V56.25L37.8214 33.5633Z" fill="#CDAFFA" stroke="#2B1EBC" stroke-width="0.625" stroke-linejoin="round"/>
<path d="M37.8214 30.4902L22.1094 23.1554V3.75L37.8214 30.4902Z" fill="#A4FCF5" stroke="#2B1EBC" stroke-width="0.625" stroke-linejoin="round"/>
<path d="M37.8214 30.4903L22.1094 23.1555V40.017L37.8214 30.4903Z" fill="#CDAFFA" stroke="#2B1EBC" stroke-width="0.625" stroke-linejoin="round"/>
</svg>
