<svg width="182" height="34" viewBox="0 0 182 34" fill="none" xmlns="http://www.w3.org/2000/svg">
<path d="M20.6397 25H15.029L5.64501 10.7927V25H0.0342949V1.96653H5.64501L15.029 16.2394V1.96653H20.6397V25ZM39.7015 1.96653V6.46167H30.3175V11.3177H37.3391V15.6816H30.3175V25H24.7068V1.96653H39.7015ZM59.2201 1.96653V6.46167H53.1172V25H47.5065V6.46167H41.4036V1.96653H59.2201ZM77.326 9.25062C76.9104 8.48502 76.3088 7.90536 75.5213 7.51163C74.7558 7.09602 73.848 6.88821 72.798 6.88821C70.9825 6.88821 69.5278 7.48975 68.4341 8.69283C67.3404 9.87403 66.7936 11.4599 66.7936 13.4505C66.7936 15.5722 67.3623 17.2347 68.4997 18.4378C69.6591 19.619 71.245 20.2096 73.2574 20.2096C74.6354 20.2096 75.7948 19.8596 76.7354 19.1596C77.6978 18.4596 78.3978 17.4534 78.8353 16.141H71.7152V12.0068H83.921V17.2237C83.5054 18.6237 82.7945 19.9252 81.7883 21.1283C80.804 22.3314 79.5462 23.3048 78.015 24.0485C76.4838 24.7922 74.7558 25.1641 72.8308 25.1641C70.5559 25.1641 68.5216 24.6719 66.7279 23.6876C64.9561 22.6813 63.5671 21.2923 62.5609 19.5205C61.5766 17.7487 61.0844 15.7254 61.0844 13.4505C61.0844 11.1755 61.5766 9.15219 62.5609 7.38038C63.5671 5.5867 64.9561 4.19769 66.7279 3.21336C68.4997 2.20715 70.5231 1.70404 72.798 1.70404C75.5542 1.70404 77.8728 2.3712 79.754 3.70553C81.657 5.03985 82.9148 6.88821 83.5273 9.25062H77.326ZM85.9133 15.8129C85.9133 13.9317 86.2633 12.2802 86.9632 10.8584C87.6851 9.43655 88.6585 8.34284 89.8834 7.57725C91.1084 6.81165 92.4755 6.42886 93.9848 6.42886C95.2754 6.42886 96.4019 6.69135 97.3644 7.21632C98.3487 7.7413 99.1034 8.43034 99.6284 9.28343V6.69135H105.239V25H99.6284V22.4079C99.0815 23.261 98.3159 23.95 97.3316 24.475C96.3691 25 95.2426 25.2625 93.952 25.2625C92.4646 25.2625 91.1084 24.8797 89.8834 24.1141C88.6585 23.3266 87.6851 22.222 86.9632 20.8002C86.2633 19.3565 85.9133 17.694 85.9133 15.8129ZM99.6284 15.8457C99.6284 14.4457 99.2346 13.3411 98.4471 12.5317C97.6816 11.7224 96.741 11.3177 95.6254 11.3177C94.5098 11.3177 93.5583 11.7224 92.7708 12.5317C92.0052 13.3192 91.6224 14.4129 91.6224 15.8129C91.6224 17.2128 92.0052 18.3284 92.7708 19.1596C93.5583 19.9689 94.5098 20.3736 95.6254 20.3736C96.741 20.3736 97.6816 19.9689 98.4471 19.1596C99.2346 18.3503 99.6284 17.2456 99.6284 15.8457ZM114.909 0.719707V25H109.298V0.719707H114.909ZM124.586 0.719707V25H118.975V0.719707H124.586ZM145.91 15.5504C145.91 16.0754 145.878 16.6222 145.812 17.1909H133.114C133.201 18.3284 133.562 19.2034 134.197 19.8158C134.853 20.4064 135.651 20.7017 136.592 20.7017C137.992 20.7017 138.965 20.1111 139.512 18.9299H145.484C145.178 20.133 144.62 21.2158 143.81 22.1782C143.023 23.1407 142.028 23.8954 140.825 24.4422C139.622 24.9891 138.276 25.2625 136.789 25.2625C134.995 25.2625 133.398 24.8797 131.998 24.1141C130.598 23.3485 129.505 22.2548 128.717 20.833C127.93 19.4112 127.536 17.7487 127.536 15.8457C127.536 13.9426 127.919 12.2802 128.684 10.8584C129.472 9.43655 130.566 8.34284 131.966 7.57725C133.366 6.81165 134.973 6.42886 136.789 6.42886C138.561 6.42886 140.136 6.80072 141.514 7.54444C142.892 8.28816 143.964 9.34905 144.729 10.7271C145.517 12.1052 145.91 13.7129 145.91 15.5504ZM140.168 14.0739C140.168 13.1114 139.84 12.3458 139.184 11.7771C138.528 11.2084 137.708 10.924 136.723 10.924C135.783 10.924 134.984 11.1974 134.328 11.7443C133.694 12.2911 133.3 13.0677 133.147 14.0739H140.168ZM154.481 9.74279C155.137 8.73658 155.958 7.94911 156.942 7.38038C157.926 6.78978 159.02 6.49448 160.223 6.49448V12.4333H158.681C157.281 12.4333 156.231 12.7395 155.531 13.352C154.831 13.9426 154.481 14.9926 154.481 16.5019V25H148.87V6.69135H154.481V9.74279ZM181.607 6.69135L170.123 33.695H164.086L168.286 24.3766L160.838 6.69135H167.105L171.337 18.1425L175.537 6.69135H181.607Z" fill="url(#paint0_linear_204_2)"/>
<defs>
<linearGradient id="paint0_linear_204_2" x1="-2" y1="9.41664" x2="182.089" y2="12.9524" gradientUnits="userSpaceOnUse">
<stop stop-color="#5056DB" stop-opacity="0.88"/>
<stop offset="0.674763" stop-color="#661CAE" stop-opacity="0.960972"/>
<stop offset="1" stop-color="#710099"/>
</linearGradient>
</defs>
</svg>
